Monoid.sfdir
StartChar: quotedbl
Encoding: 2 34 57
GlifName: quotedbl
Width: 1024
VWidth: 0
Flags: W
HStem: 1388 20G<384 512 768 896>
VStem: 384 128<768 1408> 768 128<768 1408>
LayerCount: 5
Fore
SplineSet
768 1408 m 1
 896 1408 l 1
 896 768 l 1
 768 768 l 1
 768 1408 l 1
384 1408 m 1
 512 1408 l 1
 512 768 l 1
 384 768 l 1
 384 1408 l 1
EndSplineSet
Validated: 1
EndChar
StartChar: logicalnot
Encoding: 107 172 317
GlifName: logicalnot
Width: 1024
VWidth: 0
Flags: W
HStem: 644 120<128 896>
VStem: 896 128<384 644>
LayerCount: 5
Fore
SplineSet
1024 764 m 1
 1024 384 l 1
 896 384 l 1
 896 644 l 1
 128 644 l 1
 128 764 l 1
 1024 764 l 1
EndSplineSet
Validated: 1
EndChar
StartChar: acute
Encoding: 115 180 310
GlifName: acute
Width: 1024
VWidth: 0
Flags: W
HStem: 1024 384
VStem: 489 304
LayerCount: 5
Fore
SplineSet
489 1024 m 1
 655 1408 l 1
 793 1408 l 1
 627 1024 l 1
 489 1024 l 1
EndSplineSet
Validated: 1
EndChar
StartChar: uni00B9
Encoding: 120 185 509
GlifName: uni00B_9
Width: 1024
VWidth: 0
Flags: W
VStem: 512 128<768 1378>
LayerCount: 5
Fore
SplineSet
532 1536 m 1
 640 1536 l 1
 640 768 l 1
 512 768 l 1
 512 1378 l 1
 502 1378 l 1
 256 1246 l 1
 256 1380 l 1
 532 1536 l 1
EndSplineSet
Validated: 1
EndChar
StartChar: uni0304
Encoding: 362 772 297
GlifName: uni0304
Width: 1024
VWidth: 0
Flags: W
HStem: 1284 120<256 896>
AnchorPoint: "top" 576 1152 mark 0
LayerCount: 5
Fore
SplineSet
256 1404 m 1
 896 1404 l 1
 896 1284 l 1
 256 1284 l 1
 256 1404 l 1
EndSplineSet
Validated: 1
EndChar
StartChar: uni030B
Encoding: 367 779 302
GlifName: uni030B_
Width: 1024
VWidth: 0
Flags: W
HStem: 1280 256
AnchorPoint: "top" 576 1152 mark 0
LayerCount: 5
Fore
SplineSet
680 1280 m 1
 846 1536 l 1
 984 1536 l 1
 818 1280 l 1
 680 1280 l 1
296 1280 m 1
 462 1536 l 1
 600 1536 l 1
 434 1280 l 1
 296 1280 l 1
EndSplineSet
Validated: 1
EndChar
StartChar: uni0329
Encoding: 376 809 525
GlifName: uni0329
Width: 1024
VWidth: 0
Flags: W
HStem: -384 256<512 640>
VStem: 512 128<-384 -128>
AnchorPoint: "bottom" 576 0 mark 0
LayerCount: 5
Fore
SplineSet
512 -128 m 1
 640 -128 l 1
 640 -384 l 1
 512 -384 l 1
 512 -128 l 1
EndSplineSet
Validated: 1
EndChar
StartChar: uni2010
Encoding: 564 8208 589
GlifName: uni2010
Width: 1024
VWidth: 0
Flags: W
HStem: 516 120<128 1024>
LayerCount: 5
Fore
SplineSet
128 636 m 1
 1024 636 l 1
 1024 516 l 1
 128 516 l 1
 128 636 l 1
EndSplineSet
Validated: 1
EndChar
StartChar: endash
Encoding: 567 8211 592
GlifName: endash
Width: 1024
VWidth: -128
Flags: W
HStem: 515 120<256 896>
LayerCount: 5
Fore
SplineSet
256 635 m 1
 896 636 l 1
 896 516 l 1
 256 515 l 1
 256 635 l 1
EndSplineSet
Validated: 1
EndChar
StartChar: minus
Encoding: 597 8722 575
GlifName: minus
Width: 1024
VWidth: 0
Flags: W
HStem: 643 120<128 1024>
LayerCount: 5
Fore
SplineSet
128 763 m 1
 1024 764 l 1
 1024 644 l 1
 128 643 l 1
 128 763 l 1
EndSplineSet
Validated: 1
EndChar
StartChar: block
Encoding: 605 9608 607
GlifName: block
Width: 1024
VWidth: 2048
Flags: W
VStem: 0 1024<-256 1664>
LayerCount: 5
Fore
SplineSet
0 1664 m 1
 1024 1664 l 1
 1024 -256 l 1
 0 -256 l 1
 0 1664 l 1
EndSplineSet
Validated: 1
EndChar
StartChar: uniE0B0
Encoding: 614 57520 603
GlifName: uniE_0B_0
Width: 1024
VWidth: 2048
Flags: W
LayerCount: 5
Fore
SplineSet
0 1664 m 1
 896 704 l 1
 0 -256 l 1
 0 1664 l 1
EndSplineSet
Validated: 1
EndChar
StartChar: uniE0B3
Encoding: 617 57523 606
GlifName: uniE_0B_3
Width: 1024
VWidth: 2048
Flags: W
LayerCount: 5
Fore
SplineSet
296 704 m 1
 1024 -256 l 1
 866 -256 l 1
 129 704 l 1
 866 1664 l 1
 1024 1664 l 1
 296 704 l 1
EndSplineSet
Validated: 1
EndChar
StartChar: arrowleft.liga
Encoding: 621 -1 616
GlifName: ligaarrowleft
Width: 1024
VWidth: 0
Flags: W
HStem: 516 120<-448 768>
LayerCount: 5
Fore
SplineSet
-448 516 m 1
 4 95 l 1
 -82 5 l 1
 -640 531 l 1
 -640 621 l 1
 -82 1147 l 1
 4 1057 l 1
 -448 636 l 1
 768 636 l 1
 768 516 l 1
 -448 516 l 1
EndSplineSet
Validated: 1
EndChar
StartChar: arrowright.liga
Encoding: 620 -1 615
GlifName: ligaarrowright
Width: 1024
VWidth: 0
Flags: W
HStem: 516 120<-640 576>
LayerCount: 5
Fore
SplineSet
576 516 m 1
 -640 516 l 1
 -640 636 l 1
 576 636 l 1
 124 1057 l 1
 210 1147 l 1
 768 621 l 1
 768 531 l 1
 210 5 l 1
 124 95 l 1
 576 516 l 1
EndSplineSet
Validated: 1
EndChar
StartChar: backslash.shrug
Encoding: 762 -1 760
Width: 1024
VWidth: 0
Flags: W
LayerCount: 5
Fore
SplineSet
919 -160 m 1
 3 1376 l 1
 109 1440 l 1
 1025 -96 l 1
 919 -160 l 1
EndSplineSet
Validated: 1
EndChar
StartChar: equaltypeliga
Encoding: 639 -1 773
Width: 1024
VWidth: 0
Flags: W
HStem: 132 120<-1536 640> 516 120<-1536 640> 900 120<-1536 640>
CounterMasks: 1 e0
LayerCount: 5
Fore
SplineSet
-1536 132 m 1
 -1536 252 l 1
 640 252 l 1
 640 132 l 1
 -1536 132 l 1
-1536 516 m 1
 -1536 636 l 1
 640 636 l 1
 640 516 l 1
 -1536 516 l 1
-1536 900 m 1
 -1536 1020 l 1
 640 1020 l 1
 640 900 l 1
 -1536 900 l 1
EndSplineSet
Validated: 1
EndChar
StartChar: hyphen.more
Encoding: 664 -1 660
GlifName: hyphenmore
Width: 1024
VWidth: 0
Flags: W
HStem: 516 120<256 896>
LayerCount: 5
Fore
SplineSet
256 636 m 1
 896 636 l 1
 896 516 l 1
 256 516 l 1
 256 636 l 1
EndSplineSet
Validated: 1
EndChar
StartChar: hyphen.operator
Encoding: 667 -1 663
Width: 1024
VWidth: 0
Flags: W
HStem: 516 120<256 1024>
LayerCount: 5
Fore
SplineSet
256 636 m 1
 1024 636 l 5
 1024 516 l 5
 256 516 l 1
 256 636 l 1
EndSplineSet
Validated: 1
EndChar
StartChar: l.base
Encoding: 656 -1 650
GlifName: l.base
Width: 1024
VWidth: 0
Flags: W
HStem: 0 120<256 512 640 896> 1288 120<256 512>
VStem: 512 128<120 1288>
LayerCount: 5
Fore
SplineSet
256 0 m 1
 256 120 l 1
 512 120 l 1
 512 1288 l 1
 256 1288 l 1
 256 1408 l 1
 640 1408 l 1
 640 120 l 1
 896 120 l 1
 896 0 l 1
 256 0 l 1
EndSplineSet
Validated: 1
EndChar
StartChar: less2
Encoding: 637 -1 632
GlifName: less2
Width: 1024
VWidth: 0
Flags: W
LayerCount: 5
Fore
SplineSet
261 571 m 5
 772 95 l 5
 686 5 l 5
 128 531 l 5
 128 621 l 5
 686 1147 l 5
 772 1057 l 5
 261 581 l 5
 261 571 l 5
EndSplineSet
Validated: 1
EndChar
StartChar: ligaarrowrightlong
Encoding: 625 -1 620
GlifName: ligaarrowrightlong
Width: 1024
VWidth: 0
Flags: W
HStem: 516 120<-1664 576>
LayerCount: 5
Fore
SplineSet
576 516 m 1
 -1664 516 l 5
 -1664 636 l 5
 576 636 l 1
 124 1057 l 1
 210 1147 l 1
 768 621 l 1
 768 531 l 1
 210 5 l 1
 124 95 l 1
 576 516 l 1
EndSplineSet
Validated: 1
EndChar
StartChar: slash.shrug
Encoding: 763 -1 761
Width: 1024
VWidth: 0
Flags: W
LayerCount: 5
Fore
SplineSet
235 -160 m 5
 129 -96 l 5
 1045 1440 l 5
 1151 1376 l 5
 235 -160 l 5
EndSplineSet
Validated: 1
EndChar
StartChar: underscore.2r
Encoding: 761 -1 758
Width: 1024
VWidth: 0
Flags: W
HStem: -120 120<256 1024>
LayerCount: 5
Fore
SplineSet
256 0 m 1
 1024 0 l 5
 1024 -120 l 5
 256 -120 l 1
 256 0 l 1
EndSplineSet
Validated: 1
EndChar
StartChar: underscore.more
Encoding: 759 -1 756
Width: 1024
VWidth: 0
Flags: W
HStem: -120 120<256 896>
LayerCount: 5
Fore
SplineSet
256 0 m 1
 896 0 l 5
 896 -120 l 5
 256 -120 l 1
 256 0 l 1
EndSplineSet
Validated: 1
EndChar
StartChar: undl1
Encoding: 792 -1 795
Width: 1024
VWidth: 0
Flags: W
HStem: 70.5039 56.6396<235.32 368.44 435 568.12>
VStem: 368.44 66.5596<127.144 658.616>
DStem2: 218.16 644.928 251.96 596.784 0.872108 0.489313<5.91984 133.224>
LayerCount: 5
Fore
SplineSet
378.83984375 735.080078125 m 5
 435 735.080078125 l 5
 435 127.143554688 l 5
 568.120117188 127.143554688 l 5
 568.120117188 70.50390625 l 5
 435 70.50390625 l 5
 368.440429688 70.50390625 l 5
 235.3203125 70.50390625 l 5
 235.3203125 127.143554688 l 5
 368.440429688 127.143554688 l 5
 368.440429688 658.616210938 l 5
 363.240234375 658.616210938 l 5
 251.959960938 596.784179688 l 5
 218.16015625 644.927734375 l 5
 378.83984375 735.080078125 l 5
EndSplineSet
Validated: 524289
Ligature2: "'liga' Standard Ligatures lookup 117-1" underscore one
EndChar
StartChar: undl11
Encoding: 793 -1 796
Width: 1024
VWidth: 0
Flags: W
HStem: 58.5039 56.6396<99.3203 232.44 299 432.12 452.32 585.44 652 785.12>
VStem: 232.44 66.5596<115.144 646.616> 585.44 66.5596<115.144 646.616>
DStem2: 82.1602 632.928 115.96 584.784 0.872108 0.489313<5.91984 133.224> 435.16 632.928 468.96 584.784 0.872108 0.489313<5.91984 133.224>
LayerCount: 5
Fore
SplineSet
595.83984375 723.080078125 m 5
 652 723.080078125 l 5
 652 115.143554688 l 5
 785.120117188 115.143554688 l 5
 785.120117188 58.50390625 l 5
 652 58.50390625 l 5
 585.440429688 58.50390625 l 5
 452.3203125 58.50390625 l 5
 452.3203125 115.143554688 l 5
 585.440429688 115.143554688 l 5
 585.440429688 646.616210938 l 5
 580.240234375 646.616210938 l 5
 468.959960938 584.784179688 l 5
 435.16015625 632.927734375 l 5
 595.83984375 723.080078125 l 5
242.83984375 723.080078125 m 5
 299 723.080078125 l 5
 299 115.143554688 l 5
 432.120117188 115.143554688 l 5
 432.120117188 58.50390625 l 5
 299 58.50390625 l 5
 232.440429688 58.50390625 l 5
 99.3203125 58.50390625 l 5
 99.3203125 115.143554688 l 5
 232.440429688 115.143554688 l 5
 232.440429688 646.616210938 l 5
 227.240234375 646.616210938 l 5
 115.959960938 584.784179688 l 5
 82.16015625 632.927734375 l 5
 242.83984375 723.080078125 l 5
EndSplineSet
Validated: 524289
Ligature2: "'liga' Standard Ligatures lookup 117-1" underscore one one
EndChar
